HIERARCHY
ROOT SpineBase
{
  OFFSET 0.000000 0.000000 0.000000
  CHANNELS 6 Xposition Yposition Zposition Zrotation Xrotation Yrotation
  JOINT SpineMid
  {
    OFFSET 0.000000 26.795013 0.000000
    CHANNELS 3 Zrotation Xrotation Yrotation
    JOINT SpineShoulder
    {
      OFFSET -0.080743 19.990321 -0.694233
      CHANNELS 3 Zrotation Xrotation Yrotation
      JOINT Neck
      {
        OFFSET -0.094935 6.646584 -0.521326
        CHANNELS 3 Zrotation Xrotation Yrotation
        JOINT Head
        {
          OFFSET -3.540173 11.297285 2.468487
          CHANNELS 3 Zrotation Xrotation Yrotation
          End Site
          {
            OFFSET 0 0 0
          }
        }
      }
      JOINT ShoulderLeft
      {
        OFFSET -4.814128 -5.897365 13.044976
        CHANNELS 3 Zrotation Xrotation Yrotation
        JOINT ElbowLeft
        {
          OFFSET -6.661741 -19.957676 0.062428
          CHANNELS 3 Zrotation Xrotation Yrotation
          JOINT WristLeft
          {
            OFFSET 5.321840 0.927873 -25.142860
            CHANNELS 3 Zrotation Xrotation Yrotation
            JOINT HandLeft
            {
              OFFSET 5.635306 -0.243680 -7.209420
              CHANNELS 3 Zrotation Xrotation Yrotation
              JOINT HandTipLeft
              {
                OFFSET 0.759314 0.074933 -1.826299
                CHANNELS 3 Zrotation Xrotation Yrotation
                End Site
                {
                  OFFSET 0 0 0
                }
              }
              JOINT ThumbLeft
              {
                OFFSET -1.473899 -4.402360 -0.967946
                CHANNELS 3 Zrotation Xrotation Yrotation
                End Site
                {
                  OFFSET 0 0 0
                }
              }
            }
          }
        }
      }
      JOINT ShoulderRight
      {
        OFFSET 3.145440 -2.918075 -12.194690
        CHANNELS 3 Zrotation Xrotation Yrotation
        JOINT ElbowRight
        {
          OFFSET -2.898923 -20.878642 -3.635658
          CHANNELS 3 Zrotation Xrotation Yrotation
          JOINT WristRight
          {
            OFFSET -3.654328 -17.865358 -0.526384
            CHANNELS 3 Zrotation Xrotation Yrotation
            JOINT HandRight
            {
              OFFSET -0.939455 -7.720175 2.215570
              CHANNELS 3 Zrotation Xrotation Yrotation
              JOINT HandTipRight
              {
                OFFSET -3.606392 -6.138146 -0.458112
                CHANNELS 3 Zrotation Xrotation Yrotation
                End Site
                {
                  OFFSET 0 0 0
                }
              }
              JOINT ThumbRight
              {
                OFFSET -2.383315 2.988758 4.024640
                CHANNELS 3 Zrotation Xrotation Yrotation
                End Site
                {
                  OFFSET 0 0 0
                }
              }
            }
          }
        }
      }
    }
  }
  JOINT HipLeft
  {
    OFFSET -2.541343 0.752297 2.345820
    CHANNELS 3 Zrotation Xrotation Yrotation
    JOINT KneeLeft
    {
      OFFSET 6.182521 -38.006409 8.574922
      CHANNELS 3 Zrotation Xrotation Yrotation
      JOINT AnkleLeft
      {
        OFFSET 11.877480 -24.418245 1.495080
        CHANNELS 3 Zrotation Xrotation Yrotation
        JOINT FootLeft
        {
          OFFSET 0.234949 -5.559108 -6.841234
          CHANNELS 3 Zrotation Xrotation Yrotation
          End Site
          {
            OFFSET 0 0 0
          }
        }
      }
    }
  }
  JOINT HipRight
  {
    OFFSET 0.707848 1.334806 -8.177860
    CHANNELS 3 Zrotation Xrotation Yrotation
    JOINT KneeRight
    {
      OFFSET 6.156949 -31.070220 -1.622384
      CHANNELS 3 Zrotation Xrotation Yrotation
      JOINT AnkleRight
      {
        OFFSET 10.747349 -31.073484 0.665097
        CHANNELS 3 Zrotation Xrotation Yrotation
        JOINT FootRight
        {
          OFFSET -0.816654 -6.745501 1.546410
          CHANNELS 3 Zrotation Xrotation Yrotation
          End Site
          {
            OFFSET 0 0 0
          }
        }
      }
    }
  }
}
MOTION
Frames: 12
Frame Time: 0.033333
102.763582 68.582398 318.261709 -0.000000 0.000000 72.841908 -0.000000 0.000000 -72.841908 -0.000000 0.000000 0.000000 -0.000000 0.000000 0.000000 0.000000 0.000000 0.000000 -0.000000 0.000000 0.000000 -0.000000 0.000000 0.000000 -0.000000 0.000000 0.000000 -0.000000 0.000000 0.000000 0.000000 0.000000 0.000000 0.000000 0.000000 0.000000 -0.000000 0.000000 0.000000 -0.000000 0.000000 0.000000 -0.000000 0.000000 0.000000 -0.000000 0.000000 0.000000 0.000000 0.000000 0.000000 0.000000 0.000000 0.000000 -0.000000 0.000000 -72.841908 -0.000000 0.000000 0.000000 -0.000000 0.000000 0.000000 0.000000 0.000000 0.000000 -0.000000 0.000000 -72.841908 -0.000000 0.000000 0.000000 -0.000000 0.000000 0.000000 0.000000 0.000000 0.000000
102.594081 68.637527 318.419499 -0.342911 -0.234398 72.546465 0.326456 -0.256820 -72.546435 -0.000000 0.000000 0.000000 -0.000000 0.000000 0.000000 0.000000 0.000000 0.000000 -0.000000 0.000000 0.000000 -0.000000 0.000000 0.000000 -0.183494 -0.266830 -0.830256 -1.271527 -3.714347 2.522645 0.000000 0.000000 0.000000 0.000000 0.000000 0.000000 -0.000000 0.000000 0.000000 -0.000000 0.000000 0.000000 -0.332010 -0.986786 0.021880 2.655897 -0.498470 0.669930 0.000000 0.000000 0.000000 0.000000 0.000000 0.000000 0.326456 -0.256820 -72.546435 -0.000000 0.000000 0.000000 -12.903422 -1.830868 15.951025 0.000000 0.000000 0.000000 0.326456 -0.256820 -72.546435 -0.000000 0.000000 0.000000 -8.392725 7.949366 -2.323292 0.000000 0.000000 0.000000
102.490070 68.682966 318.537164 -0.584438 -0.402436 72.302794 0.561051 -0.434447 -72.302719 -0.000000 0.000000 0.000000 -0.000000 0.000000 0.000000 0.000000 0.000000 0.000000 -0.000000 0.000000 0.000000 -0.000000 0.000000 0.000000 -0.293378 -0.431814 -1.576458 -2.035394 -6.429669 4.501418 0.000000 0.000000 0.000000 0.000000 0.000000 0.000000 0.834617 1.228395 -0.324570 -0.827838 -1.232974 0.306715 -0.647363 -1.939667 0.039097 4.833066 -0.742893 1.184893 0.000000 0.000000 0.000000 0.000000 0.000000 0.000000 0.876826 -1.207115 -72.099949 -0.832309 -0.063007 -0.198704 -22.097232 -5.511772 27.578591 0.000000 0.000000 0.000000 0.561051 -0.434447 -72.302719 -0.000000 0.000000 0.000000 -15.111896 14.348187 -3.359658 0.000000 0.000000 0.000000
102.451552 68.718717 318.614704 -0.724089 -0.503788 72.111316 0.701847 -0.534339 -72.111227 -0.000000 0.000000 0.000000 -0.000000 0.000000 0.000000 0.000000 0.000000 0.000000 -0.000000 0.000000 0.000000 -0.000000 0.000000 0.000000 -0.325503 -0.494299 -2.233940 -2.487794 -8.351927 6.070082 0.000000 0.000000 0.000000 0.000000 0.000000 0.000000 1.234454 1.843343 -0.490148 -0.531784 -2.416688 0.572552 -1.623946 -2.264903 -0.031407 6.487711 -0.752661 1.538805 0.000000 0.000000 0.000000 0.000000 0.000000 0.000000 1.057570 -1.527703 -71.861818 -1.827528 -0.551268 -0.551014 -26.516339 -8.323949 34.962646 0.000000 0.000000 0.000000 1.635297 -0.766097 -71.965386 -0.509295 -0.815820 -0.138873 -20.062220 18.770462 -3.648504 0.000000 0.000000 0.000000
102.478524 68.744779 318.652121 -0.761549 -0.538250 71.971683 0.747510 -0.557583 -71.971623 -0.000000 0.000000 0.000000 -0.000000 0.000000 0.000000 0.000000 0.000000 0.000000 -0.000000 0.000000 0.000000 -0.000000 0.000000 0.000000 -0.276653 -0.453992 -2.799052 -2.751042 -9.630386 7.306514 0.000000 0.000000 0.000000 0.000000 0.000000 0.000000 1.621639 2.457440 -0.657272 -0.791790 -3.245037 0.764198 -1.996196 -2.870705 -0.052023 7.589746 -0.549577 1.736671 0.000000 0.000000 0.000000 0.000000 0.000000 0.000000 1.063056 -1.665807 -71.713140 -2.103518 -0.504222 -0.585771 -28.892461 -10.188611 38.472514 0.000000 0.000000 0.000000 1.786876 -0.683132 -71.795464 -0.443898 -0.948098 -0.168578 -23.328673 21.270878 -3.650810 0.000000 0.000000 0.000000
102.570987 68.761152 318.649413 -0.696673 -0.505722 71.882833 0.697285 -0.504878 -71.882835 -0.000000 0.000000 0.000000 -0.000000 0.000000 0.000000 0.000000 0.000000 0.000000 -0.000000 0.000000 0.000000 -0.000000 0.000000 0.000000 -0.144581 -0.310877 -3.269168 -2.900240 -10.362290 8.255797 0.000000 0.000000 0.000000 0.000000 0.000000 0.000000 1.995460 3.069688 -0.825430 -1.093783 -4.080627 0.952003 -2.269319 -3.367822 -0.076290 8.119205 -0.153889 1.791452 0.000000 0.000000 0.000000 0.000000 0.000000 0.000000 0.891620 -1.623690 -71.652672 -2.213183 -0.342654 -0.544914 -29.483075 -10.781826 39.433510 0.000000 0.000000 0.000000 1.738997 -0.434939 -71.687410 -0.260852 -1.010912 -0.189183 -25.019026 22.009755 -3.645603 0.000000 0.000000 0.000000
102.717102 68.761971 318.613677 -0.530277 -0.398613 71.842604 0.544012 -0.379655 -71.842646 -0.000000 0.000000 0.000000 -0.000000 0.000000 0.000000 0.000000 0.000000 0.000000 -0.000000 0.000000 0.000000 -0.000000 0.000000 0.000000 -0.103837 -0.273631 -3.583289 -2.482875 -8.524488 7.252914 0.000000 0.000000 0.000000 0.000000 0.000000 0.000000 2.703155 4.343260 -1.172710 -1.853744 -5.987928 1.346872 -2.627309 -4.016026 -0.189797 9.321270 1.397278 1.279759 0.000000 0.000000 0.000000 0.000000 0.000000 0.000000 0.628497 -1.395271 -71.656438 -2.251579 -0.393905 -0.573591 -26.661862 -6.466098 35.708316 0.000000 0.000000 0.000000 1.491526 -0.038706 -71.638302 0.025136 -1.006670 -0.200664 -25.936574 21.026513 -3.781113 0.000000 0.000000 0.000000
103.002862 68.768695 318.508596 -0.170913 -0.202375 71.971848 0.245334 -0.099890 -71.971936 -0.000000 0.000000 0.000000 -0.000000 0.000000 0.000000 0.000000 0.000000 0.000000 -0.000000 0.000000 0.000000 -0.000000 0.000000 0.000000 0.196660 0.060930 -4.175991 -2.635491 -9.297484 9.049610 0.000000 0.000000 0.000000 0.000000 0.000000 0.000000 3.144621 5.145879 -1.398348 -2.296538 -7.059036 1.558149 -2.584182 -4.701636 -0.134891 8.202983 3.091531 0.681824 0.000000 0.000000 0.000000 0.000000 0.000000 0.000000 0.245334 -0.099890 -71.971936 -1.342127 -0.717178 -0.441778 -20.098294 -6.425302 27.606786 0.000000 0.000000 0.000000 0.908004 0.709181 -71.771389 0.561189 -0.882496 -0.199749 -24.954685 19.140351 -3.921912 0.000000 0.000000 0.000000
103.257377 68.770749 318.408533 0.124620 -0.020627 71.979488 -0.018937 0.124888 -71.979445 -0.000000 0.000000 0.000000 -0.000000 0.000000 0.000000 0.000000 0.000000 0.000000 -0.000000 0.000000 0.000000 -0.000000 0.000000 0.000000 0.728804 0.684755 -4.326907 -2.534530 -8.133718 9.590535 0.000000 0.000000 0.000000 0.000000 0.000000 0.000000 3.322247 5.458364 -1.489087 -2.510156 -7.352151 1.609514 -2.838289 -4.931779 -0.205630 6.286684 3.534949 0.913588 0.000000 0.000000 0.000000 0.000000 0.000000 0.000000 -0.018937 0.124888 -71.979445 -1.258044 -0.498792 -0.326787 -14.664148 -8.782190 20.488460 0.000000 0.000000 0.000000 0.376734 1.350662 -71.780066 1.040636 -0.759070 -0.197580 -22.260664 15.429097 -4.021194 0.000000 0.000000 0.000000
103.457162 68.757543 318.315270 0.316053 0.147519 71.896833 -0.238424 0.254569 -71.896710 -0.000000 0.000000 0.000000 -0.000000 0.000000 0.000000 0.000000 0.000000 0.000000 -0.000000 0.000000 0.000000 -0.000000 0.000000 0.000000 1.328130 1.393510 -4.349538 -2.233758 -6.269294 10.953593 0.000000 0.000000 0.000000 0.000000 0.000000 0.000000 2.902622 4.717798 -1.275848 -1.997202 -6.323515 1.414873 -2.658068 -3.475699 -0.239405 4.296136 1.356547 1.715391 0.000000 0.000000 0.000000 0.000000 0.000000 0.000000 -0.238424 0.254569 -71.896710 -1.266317 -0.001832 -0.078873 -8.914785 -10.468831 12.705166 0.000000 0.000000 0.000000 -0.045099 1.813610 -71.693100 1.419461 -0.673195 -0.198760 -16.285983 8.655747 -3.566891 0.000000 0.000000 0.000000
103.571432 68.738924 318.232030 0.381941 0.289835 71.726826 -0.394975 0.271804 -71.726855 -0.000000 0.000000 0.000000 -0.000000 0.000000 0.000000 0.000000 0.000000 0.000000 -0.000000 0.000000 0.000000 -0.000000 0.000000 0.000000 1.714901 1.831227 -4.623968 -2.085011 -5.928987 14.641107 0.000000 0.000000 0.000000 0.000000 0.000000 0.000000 2.675545 4.192840 -1.142747 -1.911800 -5.464515 1.240111 -1.935477 -2.775346 -0.117712 2.400452 0.524648 1.764821 0.000000 0.000000 0.000000 0.000000 0.000000 0.000000 -1.622801 0.096641 -71.970331 -0.953973 1.981014 0.580062 -1.365126 -12.933860 2.246945 0.000000 0.000000 0.000000 -0.341401 2.029568 -71.521811 1.650220 -0.607847 -0.197366 -9.400773 0.769525 -2.171339 0.000000 0.000000 0.000000
103.626296 68.749064 318.191794 0.363350 0.371208 71.559776 -0.467080 0.227276 -71.560027 -0.000000 0.000000 0.000000 -0.000000 0.000000 0.000000 0.000000 0.000000 0.000000 -0.000000 0.000000 0.000000 -0.000000 0.000000 0.000000 3.088999 3.437102 -4.773821 -2.269286 -3.441683 17.018854 0.000000 0.000000 0.000000 0.000000 0.000000 0.000000 2.538297 3.728761 -1.039894 -2.475619 -3.770633 0.875754 -0.854400 -3.536164 0.157331 0.886688 -0.369228 2.086097 0.000000 0.000000 0.000000 0.000000 0.000000 0.000000 -1.920194 0.009945 -71.848927 -0.862735 2.816617 0.934331 -3.580346 -12.894214 4.567106 0.000000 0.000000 0.000000 -0.489756 2.132970 -71.348971 1.812931 -0.587860 -0.201287 -1.743575 -5.535909 0.184302 0.000000 0.000000 0.000000
